# xmcd
#
# Track frame offsets:
#	150
#	15994
#	38210
#	49017
#	63875
#	77225
#	91098
#	102931
#	119315
#	129765
#	141873
#	157439
#	173662
#
# Disc length: 2546 seconds
# Revision: 0
# Processed by: cddbd v1.5.2PL0 Copyright (c) Steve Scherf et al.
# Submitted via: dBpowerAMP V12.0
#
DISCID=9f09f00d
DTITLE=Various Artist - Favorites
DYEAR=2016
DGENRE=Bluegrass
TTITLE0=Doug Flowers and Don Rigsby - The South
TTITLE1=Lisa Shaffer and Sam Bush - Sometimes The Moon Don't Shine
TTITLE2=Jim Iler and Don Rigsby - Girl From The Canyon
TTITLE3=Jeff White and Donna Ulisse - The Picture I Still Carry
TTITLE4=Marty Raybon and Donna Ulisse - Say Hello To Grace Today
TTITLE5=Lisa Shaffer and Tim Stafford - I Need To Be Heard
TTITLE6=Doug Flowers and Don Rigsby - Will You Be Loving Another Man
TTITLE7=Jim Iler and Don Rigsby - Your Stepping Stone
TTITLE8=Lisa Shaffer and Doug Flowers - Lonely Ends Where Love Begins
TTITLE9=Jim Iler and Randy Hayes - Another Town
TTITLE10=Tony Arata and Donna Ulisse - Dreaming With My Eyes Wide Open
TTITLE11=Doug Flowers and Don Rigsby - Her Cheating Kind
TTITLE12=Tabor Henson and Doug Flowers Family - Mighty To Save
EXTD=
EXTT0=
EXTT1=
EXTT2=
EXTT3=
EXTT4=
EXTT5=
EXTT6=
EXTT7=
EXTT8=
EXTT9=
EXTT10=
EXTT11=
EXTT12=
PLAYORDER=
